<?xml version="1.0" standalone="no"?><svg xmlns:xlink="http://www.w3.org/1999/xlink" xmlns="http://www.w3.org/2000/svg" viewBox="0 0 1000 636.3761597019662" preserveAspectRatio="xMaxYMax slice"><g transform="scale(1.4973556698869794)"><rect x="0" y="0" width="667.8571428571429" height="425" fill="#ffffff"/><rect x="0" y="0" width="60.71" height="60.71" fill="#a3a4cf"/><polygon points="0,0 60.71,60.71 0,60.71" fill="#fcfcfe"/><rect x="60.714285714285715" y="0" width="60.714285714285715" height="60.714285714285715" fill="#ffffff"/><rect x="60.71" y="0" width="30.36" height="30.36" fill="#9f9f9f"/><polygon points="60.71,0 91.07,0 60.71,30.36" fill="#c5c5c5"/><rect x="91.07" y="0" width="30.36" height="30.36" fill="#fdfdfd"/><polygon points="91.07,0 121.42999999999999,30.36 91.07,30.36" fill="#999ac9"/><rect x="60.71" y="30.36" width="30.36" height="30.36" fill="#b6b6b6"/><polygon points="60.71,30.36 91.07,30.36 91.07,60.72" fill="#c1c1c1"/><rect x="91.07" y="30.36" width="30.36" height="30.36" fill="#9fa0cc"/><polygon points="91.07,30.36 121.42999999999999,30.36 91.07,60.72" fill="#c2c2c2"/><rect x="121.43" y="0" width="60.71" height="60.71" fill="#e6e7f2"/><polygon points="121.43,0 182.14000000000001,60.71 121.43,60.71" fill="#cacbe3"/><rect x="182.14285714285714" y="0" width="60.714285714285715" height="60.714285714285715" fill="#ffffff"/><rect x="182.14" y="0" width="30.36" height="30.36" fill="#cbcce4"/><polygon points="182.14,0 212.5,30.36 182.14,30.36" fill="#b6b6b6"/><rect x="212.5" y="0" width="30.36" height="30.36" fill="#a1a1a1"/><polygon points="212.5,0 242.86,0 212.5,30.36" fill="#6d6fb2"/><rect x="182.14" y="30.36" width="30.36" height="30.36" fill="#6264ad"/><polygon points="212.5,30.36 212.5,60.72 182.14,60.72" fill="#9091c5"/><rect x="212.5" y="30.36" width="30.36" height="30.36" fill="#9697c8"/><polygon points="242.86,30.36 242.86,60.72 212.5,60.72" fill="#7476b6"/><rect x="242.86" y="0" width="60.71" height="60.71" fill="#dedede"/><polygon points="242.86,0 303.57,0 242.86,60.71" fill="#c9c9e2"/><rect x="303.57142857142856" y="0" width="60.714285714285715" height="60.714285714285715" fill="#ffffff"/><rect x="303.57" y="0" width="30.36" height="30.36" fill="#c5c5c5"/><polygon points="303.57,0 333.93,30.36 303.57,30.36" fill="#d5d5d5"/><rect x="333.93" y="0" width="30.36" height="30.36" fill="#9a9a9a"/><polygon points="333.93,0 364.29,0 333.93,30.36" fill="#d5d5e9"/><rect x="303.57" y="30.36" width="30.36" height="30.36" fill="#e7e7f2"/><polygon points="303.57,30.36 333.93,30.36 303.57,60.72" fill="#bbbbbb"/><rect x="333.93" y="30.36" width="30.36" height="30.36" fill="#ededed"/><polygon points="333.93,30.36 364.29,30.36 333.93,60.72" fill="#aaaaaa"/><rect x="364.2857142857143" y="0" width="60.714285714285715" height="60.714285714285715" fill="#ffffff"/><rect x="364.29" y="0" width="30.36" height="30.36" fill="#f8f8fb"/><polygon points="394.65000000000003,0 394.65000000000003,30.36 364.29,30.36" fill="#dedede"/><rect x="394.64" y="0" width="30.36" height="30.36" fill="#c6c7e1"/><polygon points="394.64,0 425,0 425,30.36" fill="#e1e1ef"/><rect x="364.29" y="30.36" width="30.36" height="30.36" fill="#9a9bca"/><polygon points="364.29,30.36 394.65000000000003,60.72 364.29,60.72" fill="#dadada"/><rect x="394.64" y="30.36" width="30.36" height="30.36" fill="#e3e3f0"/><polygon points="394.64,30.36 425,30.36 425,60.72" fill="#a1a2cd"/><rect x="425" y="0" width="60.71" height="60.71" fill="#bfbfbf"/><polygon points="485.71,0 485.71,60.71 425,60.71" fill="#a0a0a0"/><rect x="485.7142857142857" y="0" width="60.714285714285715" height="60.714285714285715" fill="#ffffff"/><rect x="485.71" y="0" width="30.36" height="30.36" fill="#d6d6e9"/><polygon points="516.0699999999999,0 516.0699999999999,30.36 485.71,30.36" fill="#8283bd"/><rect x="516.07" y="0" width="30.36" height="30.36" fill="#9b9cca"/><polygon points="516.07,0 546.4300000000001,0 546.4300000000001,30.36" fill="#f4f4f4"/><rect x="485.71" y="30.36" width="30.36" height="30.36" fill="#e1e1e1"/><polygon points="516.0699999999999,30.36 516.0699999999999,60.72 485.71,60.72" fill="#c0c1de"/><rect x="516.07" y="30.36" width="30.36" height="30.36" fill="#f3f4f9"/><polygon points="546.4300000000001,30.36 546.4300000000001,60.72 516.07,60.72" fill="#d3d4e8"/><rect x="546.43" y="0" width="60.71" height="60.71" fill="#6365ad"/><polygon points="607.14,0 607.14,60.71 546.43,60.71" fill="#f1f1f1"/><rect x="607.14" y="0" width="60.71" height="60.71" fill="#e2e2e2"/><polygon points="607.14,0 667.85,0 607.14,60.71" fill="#fbfbfb"/><rect x="0" y="60.71" width="60.71" height="60.71" fill="#a6a7d0"/><polygon points="0,60.71 60.71,121.42 0,121.42" fill="#dadada"/><rect x="60.714285714285715" y="60.714285714285715" width="60.714285714285715" height="60.714285714285715" fill="#ffffff"/><rect x="60.71" y="60.71" width="30.36" height="30.36" fill="#bababa"/><polygon points="60.71,60.71 91.07,91.07 60.71,91.07" fill="#b1b1b1"/><rect x="91.07" y="60.71" width="30.36" height="30.36" fill="#d8d8ea"/><polygon points="121.42999999999999,60.71 121.42999999999999,91.07 91.07,91.07" fill="#7779b8"/><rect x="60.71" y="91.07" width="30.36" height="30.36" fill="#bdbdbd"/><polygon points="60.71,91.07 91.07,121.42999999999999 60.71,121.42999999999999" fill="#a8a8a8"/><rect x="91.07" y="91.07" width="30.36" height="30.36" fill="#c1c1c1"/><polygon points="91.07,91.07 121.42999999999999,91.07 91.07,121.42999999999999" fill="#d9daeb"/><rect x="121.43" y="60.71" width="60.71" height="60.71" fill="#dfdfdf"/><polygon points="182.14000000000001,60.71 182.14000000000001,121.42 121.43,121.42" fill="#b3b4d7"/><rect x="182.14" y="60.71" width="60.71" height="60.71" fill="#d4d4d4"/><polygon points="182.14,60.71 242.85,60.71 182.14,121.42" fill="#9192c5"/><rect x="242.86" y="60.71" width="60.71" height="60.71" fill="#e4e4e4"/><polygon points="242.86,60.71 303.57,60.71 242.86,121.42" fill="#d5d5e9"/><rect x="303.57" y="60.71" width="60.71" height="60.71" fill="#c5c6e1"/><polygon points="303.57,60.71 364.28,60.71 303.57,121.42" fill="#fbfbfb"/><rect x="364.2857142857143" y="60.714285714285715" width="60.714285714285715" height="60.714285714285715" fill="#ffffff"/><rect x="364.29" y="60.71" width="30.36" height="30.36" fill="#bdbdbd"/><polygon points="394.65000000000003,60.71 394.65000000000003,91.07 364.29,91.07" fill="#f5f5fa"/><rect x="394.64" y="60.71" width="30.36" height="30.36" fill="#c9cae3"/><polygon points="425,60.71 425,91.07 394.64,91.07" fill="#b5b5b5"/><rect x="364.29" y="91.07" width="30.36" height="30.36" fill="#c2c3df"/><polygon points="394.65000000000003,91.07 394.65000000000003,121.42999999999999 364.29,121.42999999999999" fill="#c5c6e1"/><rect x="394.64" y="91.07" width="30.36" height="30.36" fill="#a9a9a9"/><polygon points="394.64,91.07 425,91.07 394.64,121.42999999999999" fill="#c9cae3"/><rect x="425" y="60.714285714285715" width="60.714285714285715" height="60.714285714285715" fill="#ffffff"/><rect x="425" y="60.71" width="30.36" height="30.36" fill="#eaeaea"/><polygon points="425,60.71 455.36,60.71 455.36,91.07" fill="#e1e1e1"/><rect x="455.36" y="60.71" width="30.36" height="30.36" fill="#9a9a9a"/><polygon points="455.36,60.71 485.72,60.71 485.72,91.07" fill="#fcfcfc"/><rect x="425" y="91.07" width="30.36" height="30.36" fill="#9092c5"/><polygon points="425,91.07 455.36,91.07 455.36,121.42999999999999" fill="#f6f6f6"/><rect x="455.36" y="91.07" width="30.36" height="30.36" fill="#b9b9b9"/><polygon points="455.36,91.07 485.72,121.42999999999999 455.36,121.42999999999999" fill="#7476b6"/><rect x="485.7142857142857" y="60.714285714285715" width="60.714285714285715" height="60.714285714285715" fill="#ffffff"/><rect x="485.71" y="60.71" width="30.36" height="30.36" fill="#7d7ebb"/><polygon points="485.71,60.71 516.0699999999999,60.71 485.71,91.07" fill="#c2c3df"/><rect x="516.07" y="60.71" width="30.36" height="30.36" fill="#9fa1cd"/><polygon points="546.4300000000001,60.71 546.4300000000001,91.07 516.07,91.07" fill="#afb0d5"/><rect x="485.71" y="91.07" width="30.36" height="30.36" fill="#a4a5cf"/><polygon points="485.71,91.07 516.0699999999999,91.07 516.0699999999999,121.42999999999999" fill="#c3c3c3"/><rect x="516.07" y="91.07" width="30.36" height="30.36" fill="#f0f0f0"/><polygon points="516.07,91.07 546.4300000000001,91.07 546.4300000000001,121.42999999999999" fill="#dbdbdb"/><rect x="546.43" y="60.71" width="60.71" height="60.71" fill="#b7b8d9"/><polygon points="607.14,60.71 607.14,121.42 546.43,121.42" fill="#6c6db2"/><rect x="607.14" y="60.71" width="60.71" height="60.71" fill="#cdcdcd"/><polygon points="607.14,60.71 667.85,60.71 667.85,121.42" fill="#f4f5f9"/><rect x="0" y="121.42857142857143" width="60.714285714285715" height="60.714285714285715" fill="#ffffff"/><rect x="0" y="121.43" width="30.36" height="30.36" fill="#9f9f9f"/><polygon points="0,121.43 30.36,121.43 30.36,151.79000000000002" fill="#fbfbfb"/><rect x="30.36" y="121.43" width="30.36" height="30.36" fill="#a5a5a5"/><polygon points="30.36,121.43 60.72,121.43 60.72,151.79000000000002" fill="#c4c4c4"/><rect x="0" y="151.79" width="30.36" height="30.36" fill="#7b7cba"/><polygon points="0,151.79 30.36,151.79 30.36,182.14999999999998" fill="#f0f0f0"/><rect x="30.36" y="151.79" width="30.36" height="30.36" fill="#fbfbfd"/><polygon points="30.36,151.79 60.72,151.79 30.36,182.14999999999998" fill="#e9e9e9"/><rect x="60.71" y="121.43" width="60.71" height="60.71" fill="#a4a4a4"/><polygon points="60.71,121.43 121.42,182.14000000000001 60.71,182.14000000000001" fill="#dcdced"/><rect x="121.42857142857143" y="121.42857142857143" width="60.714285714285715" height="60.714285714285715" fill="#ffffff"/><rect x="121.43" y="121.43" width="30.36" height="30.36" fill="#ababab"/><polygon points="121.43,121.43 151.79000000000002,121.43 121.43,151.79000000000002" fill="#d0d0e6"/><rect x="151.79" y="121.43" width="30.36" height="30.36" fill="#a1a1a1"/><polygon points="151.79,121.43 182.14999999999998,121.43 182.14999999999998,151.79000000000002" fill="#b5b6d8"/><rect x="121.43" y="151.79" width="30.36" height="30.36" fill="#cacaca"/><polygon points="151.79000000000002,151.79 151.79000000000002,182.14999999999998 121.43,182.14999999999998" fill="#d6d7ea"/><rect x="151.79" y="151.79" width="30.36" height="30.36" fill="#dadada"/><polygon points="151.79,151.79 182.14999999999998,151.79 151.79,182.14999999999998" fill="#b0b0b0"/><rect x="182.14285714285714" y="121.42857142857143" width="60.714285714285715" height="60.714285714285715" fill="#ffffff"/><rect x="182.14" y="121.43" width="30.36" height="30.36" fill="#6465ad"/><polygon points="182.14,121.43 212.5,151.79000000000002 182.14,151.79000000000002" fill="#7b7dba"/><rect x="212.5" y="121.43" width="30.36" height="30.36" fill="#ececec"/><polygon points="242.86,121.43 242.86,151.79000000000002 212.5,151.79000000000002" fill="#a4a5cf"/><rect x="182.14" y="151.79" width="30.36" height="30.36" fill="#d0d1e6"/><polygon points="182.14,151.79 212.5,151.79 212.5,182.14999999999998" fill="#6163ac"/><rect x="212.5" y="151.79" width="30.36" height="30.36" fill="#d7d7d7"/><polygon points="212.5,151.79 242.86,182.14999999999998 212.5,182.14999999999998" fill="#e1e2ef"/><rect x="242.86" y="121.43" width="60.71" height="60.71" fill="#ebebeb"/><polygon points="242.86,121.43 303.57,121.43 303.57,182.14000000000001" fill="#888ac1"/><rect x="303.57" y="121.43" width="60.71" height="60.71" fill="#b6b6b6"/><polygon points="364.28,121.43 364.28,182.14000000000001 303.57,182.14000000000001" fill="#f1f1f7"/><rect x="364.29" y="121.43" width="60.71" height="60.71" fill="#c5c6e1"/><polygon points="425,121.43 425,182.14000000000001 364.29,182.14000000000001" fill="#a3a3a3"/><rect x="425" y="121.42857142857143" width="60.714285714285715" height="60.714285714285715" fill="#ffffff"/><rect x="425" y="121.43" width="30.36" height="30.36" fill="#dddddd"/><polygon points="425,121.43 455.36,121.43 425,151.79000000000002" fill="#8f91c4"/><rect x="455.36" y="121.43" width="30.36" height="30.36" fill="#cbcbcb"/><polygon points="455.36,121.43 485.72,151.79000000000002 455.36,151.79000000000002" fill="#d3d3d3"/><rect x="425" y="151.79" width="30.36" height="30.36" fill="#7173b5"/><polygon points="455.36,151.79 455.36,182.14999999999998 425,182.14999999999998" fill="#cacaca"/><rect x="455.36" y="151.79" width="30.36" height="30.36" fill="#e1e1ef"/><polygon points="455.36,151.79 485.72,151.79 485.72,182.14999999999998" fill="#bbbcdb"/><rect x="485.71" y="121.43" width="60.71" height="60.71" fill="#aaaaaa"/><polygon points="485.71,121.43 546.42,121.43 546.42,182.14000000000001" fill="#dddddd"/><rect x="546.4285714285714" y="121.42857142857143" width="60.714285714285715" height="60.714285714285715" fill="#ffffff"/><rect x="546.43" y="121.43" width="30.36" height="30.36" fill="#ffffff"/><polygon points="546.43,121.43 576.79,121.43 546.43,151.79000000000002" fill="#b1b1b1"/><rect x="576.79" y="121.43" width="30.36" height="30.36" fill="#a1a1a1"/><polygon points="576.79,121.43 607.15,121.43 607.15,151.79000000000002" fill="#c0c0c0"/><rect x="546.43" y="151.79" width="30.36" height="30.36" fill="#d9daeb"/><polygon points="546.43,151.79 576.79,182.14999999999998 546.43,182.14999999999998" fill="#b7b7b7"/><rect x="576.79" y="151.79" width="30.36" height="30.36" fill="#a5a6d0"/><polygon points="576.79,151.79 607.15,182.14999999999998 576.79,182.14999999999998" fill="#f5f5f5"/><rect x="607.1428571428571" y="121.42857142857143" width="60.714285714285715" height="60.714285714285715" fill="#ffffff"/><rect x="607.14" y="121.43" width="30.36" height="30.36" fill="#9b9ccb"/><polygon points="607.14,121.43 637.5,151.79000000000002 607.14,151.79000000000002" fill="#cdcdcd"/><rect x="637.5" y="121.43" width="30.36" height="30.36" fill="#c0c0c0"/><polygon points="637.5,121.43 667.86,121.43 667.86,151.79000000000002" fill="#6a6cb1"/><rect x="607.14" y="151.79" width="30.36" height="30.36" fill="#9495c7"/><polygon points="607.14,151.79 637.5,151.79 607.14,182.14999999999998" fill="#b2b3d7"/><rect x="637.5" y="151.79" width="30.36" height="30.36" fill="#b7b7b7"/><polygon points="667.86,151.79 667.86,182.14999999999998 637.5,182.14999999999998" fill="#8081bc"/><rect x="0" y="182.14" width="60.71" height="60.71" fill="#f3f3f8"/><polygon points="0,182.14 60.71,182.14 60.71,242.85" fill="#8586bf"/><rect x="60.714285714285715" y="182.14285714285714" width="60.714285714285715" height="60.714285714285715" fill="#ffffff"/><rect x="60.71" y="182.14" width="30.36" height="30.36" fill="#dcdcdc"/><polygon points="91.07,182.14 91.07,212.5 60.71,212.5" fill="#c8c8e2"/><rect x="91.07" y="182.14" width="30.36" height="30.36" fill="#dedede"/><polygon points="121.42999999999999,182.14 121.42999999999999,212.5 91.07,212.5" fill="#a9aad2"/><rect x="60.71" y="212.5" width="30.36" height="30.36" fill="#dadaec"/><polygon points="91.07,212.5 91.07,242.86 60.71,242.86" fill="#fdfdfd"/><rect x="91.07" y="212.5" width="30.36" height="30.36" fill="#999ac9"/><polygon points="91.07,212.5 121.42999999999999,212.5 91.07,242.86" fill="#6466ad"/><rect x="121.42857142857143" y="182.14285714285714" width="60.714285714285715" height="60.714285714285715" fill="#ffffff"/><rect x="121.43" y="182.14" width="30.36" height="30.36" fill="#7d7ebb"/><polygon points="121.43,182.14 151.79000000000002,212.5 121.43,212.5" fill="#b3b3b3"/><rect x="151.79" y="182.14" width="30.36" height="30.36" fill="#6163ac"/><polygon points="151.79,182.14 182.14999999999998,182.14 182.14999999999998,212.5" fill="#d1d2e7"/><rect x="121.43" y="212.5" width="30.36" height="30.36" fill="#8283bd"/><polygon points="121.43,212.5 151.79000000000002,212.5 151.79000000000002,242.86" fill="#fdfdfd"/><rect x="151.79" y="212.5" width="30.36" height="30.36" fill="#8385be"/><polygon points="151.79,212.5 182.14999999999998,212.5 182.14999999999998,242.86" fill="#6264ac"/><rect x="182.14" y="182.14" width="60.71" height="60.71" fill="#9e9fcc"/><polygon points="182.14,182.14 242.85,242.85 182.14,242.85" fill="#9899c9"/><rect x="242.85714285714286" y="182.14285714285714" width="60.714285714285715" height="60.714285714285715" fill="#ffffff"/><rect x="242.86" y="182.14" width="30.36" height="30.36" fill="#8284bd"/><polygon points="242.86,182.14 273.22,182.14 273.22,212.5" fill="#f4f5f9"/><rect x="273.21" y="182.14" width="30.36" height="30.36" fill="#8789c0"/><polygon points="273.21,182.14 303.57,182.14 303.57,212.5" fill="#6f71b4"/><rect x="242.86" y="212.5" width="30.36" height="30.36" fill="#e7e7f2"/><polygon points="242.86,212.5 273.22,242.86 242.86,242.86" fill="#d3d3d3"/><rect x="273.21" y="212.5" width="30.36" height="30.36" fill="#a5a6d0"/><polygon points="303.57,212.5 303.57,242.86 273.21,242.86" fill="#8b8cc2"/><rect x="303.57142857142856" y="182.14285714285714" width="60.714285714285715" height="60.714285714285715" fill="#ffffff"/><rect x="303.57" y="182.14" width="30.36" height="30.36" fill="#bcbcbc"/><polygon points="303.57,182.14 333.93,182.14 333.93,212.5" fill="#d4d5e9"/><rect x="333.93" y="182.14" width="30.36" height="30.36" fill="#9192c5"/><polygon points="333.93,182.14 364.29,182.14 364.29,212.5" fill="#8d8fc3"/><rect x="303.57" y="212.5" width="30.36" height="30.36" fill="#9091c5"/><polygon points="303.57,212.5 333.93,212.5 333.93,242.86" fill="#acacac"/><rect x="333.93" y="212.5" width="30.36" height="30.36" fill="#e2e2e2"/><polygon points="333.93,212.5 364.29,212.5 364.29,242.86" fill="#b5b5b5"/><rect x="364.2857142857143" y="182.14285714285714" width="60.714285714285715" height="60.714285714285715" fill="#ffffff"/><rect x="364.29" y="182.14" width="30.36" height="30.36" fill="#ededed"/><polygon points="364.29,182.14 394.65000000000003,182.14 394.65000000000003,212.5" fill="#a2a2a2"/><rect x="394.64" y="182.14" width="30.36" height="30.36" fill="#c8c8e2"/><polygon points="394.64,182.14 425,182.14 394.64,212.5" fill="#e3e3e3"/><rect x="364.29" y="212.5" width="30.36" height="30.36" fill="#9c9dcb"/><polygon points="364.29,212.5 394.65000000000003,212.5 394.65000000000003,242.86" fill="#cdcde5"/><rect x="394.64" y="212.5" width="30.36" height="30.36" fill="#9a9a9a"/><polygon points="425,212.5 425,242.86 394.64,242.86" fill="#f6f6f6"/><rect x="425" y="182.14285714285714" width="60.714285714285715" height="60.714285714285715" fill="#ffffff"/><rect x="425" y="182.14" width="30.36" height="30.36" fill="#ababab"/><polygon points="425,182.14 455.36,212.5 425,212.5" fill="#8688c0"/><rect x="455.36" y="182.14" width="30.36" height="30.36" fill="#ffffff"/><polygon points="485.72,182.14 485.72,212.5 455.36,212.5" fill="#8687bf"/><rect x="425" y="212.5" width="30.36" height="30.36" fill="#b4b4b4"/><polygon points="455.36,212.5 455.36,242.86 425,242.86" fill="#afafaf"/><rect x="455.36" y="212.5" width="30.36" height="30.36" fill="#6466ae"/><polygon points="455.36,212.5 485.72,242.86 455.36,242.86" fill="#a6a7d0"/><rect x="485.7142857142857" y="182.14285714285714" width="60.714285714285715" height="60.714285714285715" fill="#ffffff"/><rect x="485.71" y="182.14" width="30.36" height="30.36" fill="#d4d4d4"/><polygon points="485.71,182.14 516.0699999999999,182.14 485.71,212.5" fill="#b4b4b4"/><rect x="516.07" y="182.14" width="30.36" height="30.36" fill="#f0f0f0"/><polygon points="546.4300000000001,182.14 546.4300000000001,212.5 516.07,212.5" fill="#e5e5e5"/><rect x="485.71" y="212.5" width="30.36" height="30.36" fill="#b7b7b7"/><polygon points="485.71,212.5 516.0699999999999,212.5 485.71,242.86" fill="#b5b6d8"/><rect x="516.07" y="212.5" width="30.36" height="30.36" fill="#6f71b4"/><polygon points="516.07,212.5 546.4300000000001,212.5 516.07,242.86" fill="#c9cae3"/><rect x="546.4285714285714" y="182.14285714285714" width="60.714285714285715" height="60.714285714285715" fill="#ffffff"/><rect x="546.43" y="182.14" width="30.36" height="30.36" fill="#989ac9"/><polygon points="546.43,182.14 576.79,212.5 546.43,212.5" fill="#686ab0"/><rect x="576.79" y="182.14" width="30.36" height="30.36" fill="#aaabd2"/><polygon points="576.79,182.14 607.15,182.14 607.15,212.5" fill="#eeeeee"/><rect x="546.43" y="212.5" width="30.36" height="30.36" fill="#c8c8e2"/><polygon points="546.43,212.5 576.79,212.5 576.79,242.86" fill="#c3c3df"/><rect x="576.79" y="212.5" width="30.36" height="30.36" fill="#d0d0d0"/><polygon points="576.79,212.5 607.15,212.5 576.79,242.86" fill="#c2c2c2"/><rect x="607.1428571428571" y="182.14285714285714" width="60.714285714285715" height="60.714285714285715" fill="#ffffff"/><rect x="607.14" y="182.14" width="30.36" height="30.36" fill="#9596c7"/><polygon points="607.14,182.14 637.5,212.5 607.14,212.5" fill="#e4e4e4"/><rect x="637.5" y="182.14" width="30.36" height="30.36" fill="#cdcdcd"/><polygon points="637.5,182.14 667.86,182.14 667.86,212.5" fill="#a1a1a1"/><rect x="607.14" y="212.5" width="30.36" height="30.36" fill="#f2f2f8"/><polygon points="637.5,212.5 637.5,242.86 607.14,242.86" fill="#7e7fbb"/><rect x="637.5" y="212.5" width="30.36" height="30.36" fill="#9294c6"/><polygon points="667.86,212.5 667.86,242.86 637.5,242.86" fill="#f3f3f3"/><rect x="0" y="242.85714285714286" width="60.714285714285715" height="60.714285714285715" fill="#ffffff"/><rect x="0" y="242.86" width="30.36" height="30.36" fill="#6668af"/><polygon points="0,242.86 30.36,273.22 0,273.22" fill="#cdcdcd"/><rect x="30.36" y="242.86" width="30.36" height="30.36" fill="#bebebe"/><polygon points="60.72,242.86 60.72,273.22 30.36,273.22" fill="#cdcee5"/><rect x="0" y="273.21" width="30.36" height="30.36" fill="#bababa"/><polygon points="0,273.21 30.36,303.57 0,303.57" fill="#898bc1"/><rect x="30.36" y="273.21" width="30.36" height="30.36" fill="#d1d2e7"/><polygon points="60.72,273.21 60.72,303.57 30.36,303.57" fill="#b4b5d8"/><rect x="60.714285714285715" y="242.85714285714286" width="60.714285714285715" height="60.714285714285715" fill="#ffffff"/><rect x="60.71" y="242.86" width="30.36" height="30.36" fill="#babbdb"/><polygon points="60.71,242.86 91.07,242.86 91.07,273.22" fill="#aaaaaa"/><rect x="91.07" y="242.86" width="30.36" height="30.36" fill="#c4c4c4"/><polygon points="91.07,242.86 121.42999999999999,242.86 91.07,273.22" fill="#d6d6d6"/><rect x="60.71" y="273.21" width="30.36" height="30.36" fill="#eaeaf4"/><polygon points="60.71,273.21 91.07,303.57 60.71,303.57" fill="#d6d6d6"/><rect x="91.07" y="273.21" width="30.36" height="30.36" fill="#a2a2a2"/><polygon points="91.07,273.21 121.42999999999999,273.21 121.42999999999999,303.57" fill="#9d9d9d"/><rect x="121.42857142857143" y="242.85714285714286" width="60.714285714285715" height="60.714285714285715" fill="#ffffff"/><rect x="121.43" y="242.86" width="30.36" height="30.36" fill="#b0b1d5"/><polygon points="151.79000000000002,242.86 151.79000000000002,273.22 121.43,273.22" fill="#c8c8c8"/><rect x="151.79" y="242.86" width="30.36" height="30.36" fill="#7e7fbb"/><polygon points="182.14999999999998,242.86 182.14999999999998,273.22 151.79,273.22" fill="#8b8dc2"/><rect x="121.43" y="273.21" width="30.36" height="30.36" fill="#c3c3c3"/><polygon points="121.43,273.21 151.79000000000002,273.21 121.43,303.57" fill="#cfcfcf"/><rect x="151.79" y="273.21" width="30.36" height="30.36" fill="#efefef"/><polygon points="151.79,273.21 182.14999999999998,273.21 151.79,303.57" fill="#8a8bc2"/><rect x="182.14285714285714" y="242.85714285714286" width="60.714285714285715" height="60.714285714285715" fill="#ffffff"/><rect x="182.14" y="242.86" width="30.36" height="30.36" fill="#ededed"/><polygon points="212.5,242.86 212.5,273.22 182.14,273.22" fill="#f3f3f9"/><rect x="212.5" y="242.86" width="30.36" height="30.36" fill="#a8a8a8"/><polygon points="212.5,242.86 242.86,242.86 242.86,273.22" fill="#8384be"/><rect x="182.14" y="273.21" width="30.36" height="30.36" fill="#cbcbe4"/><polygon points="182.14,273.21 212.5,303.57 182.14,303.57" fill="#adadad"/><rect x="212.5" y="273.21" width="30.36" height="30.36" fill="#e1e1e1"/><polygon points="212.5,273.21 242.86,273.21 212.5,303.57" fill="#a5a5a5"/><rect x="242.85714285714286" y="242.85714285714286" width="60.714285714285715" height="60.714285714285715" fill="#ffffff"/><rect x="242.86" y="242.86" width="30.36" height="30.36" fill="#d2d3e8"/><polygon points="273.22,242.86 273.22,273.22 242.86,273.22" fill="#adaed4"/><rect x="273.21" y="242.86" width="30.36" height="30.36" fill="#cdcdcd"/><polygon points="273.21,242.86 303.57,242.86 273.21,273.22" fill="#6c6eb2"/><rect x="242.86" y="273.21" width="30.36" height="30.36" fill="#f0f0f7"/><polygon points="242.86,273.21 273.22,273.21 242.86,303.57" fill="#c8c8e2"/><rect x="273.21" y="273.21" width="30.36" height="30.36" fill="#9f9f9f"/><polygon points="303.57,273.21 303.57,303.57 273.21,303.57" fill="#d4d4d4"/><rect x="303.57" y="242.86" width="60.71" height="60.71" fill="#bcbddc"/><polygon points="303.57,242.86 364.28,242.86 303.57,303.57" fill="#a1a1a1"/><rect x="364.29" y="242.86" width="60.71" height="60.71" fill="#c3c3df"/><polygon points="364.29,242.86 425,242.86 425,303.57" fill="#bdbdbd"/><rect x="425" y="242.86" width="60.71" height="60.71" fill="#d2d2d2"/><polygon points="485.71,242.86 485.71,303.57 425,303.57" fill="#e9e9f4"/><rect x="485.7142857142857" y="242.85714285714286" width="60.714285714285715" height="60.714285714285715" fill="#ffffff"/><rect x="485.71" y="242.86" width="30.36" height="30.36" fill="#bfc0dd"/><polygon points="485.71,242.86 516.0699999999999,273.22 485.71,273.22" fill="#8385be"/><rect x="516.07" y="242.86" width="30.36" height="30.36" fill="#dadaec"/><polygon points="516.07,242.86 546.4300000000001,242.86 516.07,273.22" fill="#c9c9c9"/><rect x="485.71" y="273.21" width="30.36" height="30.36" fill="#a7a8d1"/><polygon points="485.71,273.21 516.0699999999999,273.21 516.0699999999999,303.57" fill="#6d6fb3"/><rect x="516.07" y="273.21" width="30.36" height="30.36" fill="#9293c6"/><polygon points="546.4300000000001,273.21 546.4300000000001,303.57 516.07,303.57" fill="#eaeaf4"/><rect x="546.4285714285714" y="242.85714285714286" width="60.714285714285715" height="60.714285714285715" fill="#ffffff"/><rect x="546.43" y="242.86" width="30.36" height="30.36" fill="#bcbcbc"/><polygon points="576.79,242.86 576.79,273.22 546.43,273.22" fill="#a1a1a1"/><rect x="576.79" y="242.86" width="30.36" height="30.36" fill="#8c8dc3"/><polygon points="576.79,242.86 607.15,242.86 607.15,273.22" fill="#e5e5e5"/><rect x="546.43" y="273.21" width="30.36" height="30.36" fill="#f2f2f2"/><polygon points="546.43,273.21 576.79,273.21 546.43,303.57" fill="#cbcbcb"/><rect x="576.79" y="273.21" width="30.36" height="30.36" fill="#dedeed"/><polygon points="576.79,273.21 607.15,303.57 576.79,303.57" fill="#9c9c9c"/><rect x="607.1428571428571" y="242.85714285714286" width="60.714285714285715" height="60.714285714285715" fill="#ffffff"/><rect x="607.14" y="242.86" width="30.36" height="30.36" fill="#d6d6e9"/><polygon points="607.14,242.86 637.5,273.22 607.14,273.22" fill="#d2d2d2"/><rect x="637.5" y="242.86" width="30.36" height="30.36" fill="#bdbedd"/><polygon points="637.5,242.86 667.86,273.22 637.5,273.22" fill="#a7a7a7"/><rect x="607.14" y="273.21" width="30.36" height="30.36" fill="#8789c0"/><polygon points="607.14,273.21 637.5,273.21 607.14,303.57" fill="#a4a4a4"/><rect x="637.5" y="273.21" width="30.36" height="30.36" fill="#a1a1a1"/><polygon points="637.5,273.21 667.86,273.21 637.5,303.57" fill="#bdbdbd"/><rect x="0" y="303.57" width="60.71" height="60.71" fill="#afafaf"/><polygon points="0,303.57 60.71,303.57 0,364.28" fill="#7b7dba"/><rect x="60.71" y="303.57" width="60.71" height="60.71" fill="#9a9a9a"/><polygon points="121.42,303.57 121.42,364.28 60.71,364.28" fill="#e1e1e1"/><rect x="121.42857142857143" y="303.57142857142856" width="60.714285714285715" height="60.714285714285715" fill="#ffffff"/><rect x="121.43" y="303.57" width="30.36" height="30.36" fill="#dcdded"/><polygon points="121.43,303.57 151.79000000000002,303.57 151.79000000000002,333.93" fill="#a9a9a9"/><rect x="151.79" y="303.57" width="30.36" height="30.36" fill="#7a7bb9"/><polygon points="151.79,303.57 182.14999999999998,303.57 182.14999999999998,333.93" fill="#f6f6f6"/><rect x="121.43" y="333.93" width="30.36" height="30.36" fill="#7f80bc"/><polygon points="151.79000000000002,333.93 151.79000000000002,364.29 121.43,364.29" fill="#fafafa"/><rect x="151.79" y="333.93" width="30.36" height="30.36" fill="#adaed4"/><polygon points="182.14999999999998,333.93 182.14999999999998,364.29 151.79,364.29" fill="#b1b2d6"/><rect x="182.14285714285714" y="303.57142857142856" width="60.714285714285715" height="60.714285714285715" fill="#ffffff"/><rect x="182.14" y="303.57" width="30.36" height="30.36" fill="#c2c2c2"/><polygon points="182.14,303.57 212.5,333.93 182.14,333.93" fill="#6567ae"/><rect x="212.5" y="303.57" width="30.36" height="30.36" fill="#cecece"/><polygon points="212.5,303.57 242.86,333.93 212.5,333.93" fill="#e3e3e3"/><rect x="182.14" y="333.93" width="30.36" height="30.36" fill="#e5e5e5"/><polygon points="182.14,333.93 212.5,333.93 182.14,364.29" fill="#9c9dcb"/><rect x="212.5" y="333.93" width="30.36" height="30.36" fill="#b7b7b7"/><polygon points="212.5,333.93 242.86,333.93 242.86,364.29" fill="#fbfbfd"/><rect x="242.85714285714286" y="303.57142857142856" width="60.714285714285715" height="60.714285714285715" fill="#ffffff"/><rect x="242.86" y="303.57" width="30.36" height="30.36" fill="#6365ad"/><polygon points="242.86,303.57 273.22,333.93 242.86,333.93" fill="#d0d0d0"/><rect x="273.21" y="303.57" width="30.36" height="30.36" fill="#fafafc"/><polygon points="273.21,303.57 303.57,333.93 273.21,333.93" fill="#dcdced"/><rect x="242.86" y="333.93" width="30.36" height="30.36" fill="#f5f5f5"/><polygon points="242.86,333.93 273.22,364.29 242.86,364.29" fill="#f2f2f2"/><rect x="273.21" y="333.93" width="30.36" height="30.36" fill="#d0d0d0"/><polygon points="273.21,333.93 303.57,364.29 273.21,364.29" fill="#cecece"/><rect x="303.57" y="303.57" width="60.71" height="60.71" fill="#eeeeee"/><polygon points="303.57,303.57 364.28,303.57 303.57,364.28" fill="#bababa"/><rect x="364.29" y="303.57" width="60.71" height="60.71" fill="#6b6db1"/><polygon points="364.29,303.57 425,364.28 364.29,364.28" fill="#e1e1e1"/><rect x="425" y="303.57" width="60.71" height="60.71" fill="#eeeeee"/><polygon points="425,303.57 485.71,364.28 425,364.28" fill="#e7e7e7"/><rect x="485.71" y="303.57" width="60.71" height="60.71" fill="#b0b0b0"/><polygon points="546.42,303.57 546.42,364.28 485.71,364.28" fill="#dadada"/><rect x="546.43" y="303.57" width="60.71" height="60.71" fill="#aeafd5"/><polygon points="607.14,303.57 607.14,364.28 546.43,364.28" fill="#e4e4f1"/><rect x="607.1428571428571" y="303.57142857142856" width="60.714285714285715" height="60.714285714285715" fill="#ffffff"/><rect x="607.14" y="303.57" width="30.36" height="30.36" fill="#9394c6"/><polygon points="637.5,303.57 637.5,333.93 607.14,333.93" fill="#d0d0d0"/><rect x="637.5" y="303.57" width="30.36" height="30.36" fill="#c1c1c1"/><polygon points="667.86,303.57 667.86,333.93 637.5,333.93" fill="#c2c3df"/><rect x="607.14" y="333.93" width="30.36" height="30.36" fill="#b0b0b0"/><polygon points="637.5,333.93 637.5,364.29 607.14,364.29" fill="#8789c0"/><rect x="637.5" y="333.93" width="30.36" height="30.36" fill="#e0e0ef"/><polygon points="637.5,333.93 667.86,364.29 637.5,364.29" fill="#afafaf"/><rect x="0" y="364.29" width="60.71" height="60.71" fill="#a7a8d1"/><polygon points="60.71,364.29 60.71,425 0,425" fill="#ababab"/><rect x="60.714285714285715" y="364.2857142857143" width="60.714285714285715" height="60.714285714285715" fill="#ffffff"/><rect x="60.71" y="364.29" width="30.36" height="30.36" fill="#dbdcec"/><polygon points="91.07,364.29 91.07,394.65000000000003 60.71,394.65000000000003" fill="#c3c4e0"/><rect x="91.07" y="364.29" width="30.36" height="30.36" fill="#b9bada"/><polygon points="121.42999999999999,364.29 121.42999999999999,394.65000000000003 91.07,394.65000000000003" fill="#efefef"/><rect x="60.71" y="394.64" width="30.36" height="30.36" fill="#cfcfcf"/><polygon points="60.71,394.64 91.07,394.64 91.07,425" fill="#ededed"/><rect x="91.07" y="394.64" width="30.36" height="30.36" fill="#e9e9f3"/><polygon points="91.07,394.64 121.42999999999999,394.64 91.07,425" fill="#bfc0dd"/><rect x="121.43" y="364.29" width="60.71" height="60.71" fill="#c7c8e2"/><polygon points="121.43,364.29 182.14000000000001,425 121.43,425" fill="#b5b5b5"/><rect x="182.14" y="364.29" width="60.71" height="60.71" fill="#e2e2e2"/><polygon points="242.85,364.29 242.85,425 182.14,425" fill="#e4e4e4"/><rect x="242.86" y="364.29" width="60.71" height="60.71" fill="#c6c6c6"/><polygon points="303.57,364.29 303.57,425 242.86,425" fill="#bdbdbd"/><rect x="303.57" y="364.29" width="60.71" height="60.71" fill="#efefef"/><polygon points="364.28,364.29 364.28,425 303.57,425" fill="#bebebe"/><rect x="364.2857142857143" y="364.2857142857143" width="60.714285714285715" height="60.714285714285715" fill="#ffffff"/><rect x="364.29" y="364.29" width="30.36" height="30.36" fill="#e1e1e1"/><polygon points="394.65000000000003,364.29 394.65000000000003,394.65000000000003 364.29,394.65000000000003" fill="#efefef"/><rect x="394.64" y="364.29" width="30.36" height="30.36" fill="#dbdbec"/><polygon points="394.64,364.29 425,364.29 394.64,394.65000000000003" fill="#d7d7ea"/><rect x="364.29" y="394.64" width="30.36" height="30.36" fill="#a3a3a3"/><polygon points="364.29,394.64 394.65000000000003,394.64 394.65000000000003,425" fill="#ababab"/><rect x="394.64" y="394.64" width="30.36" height="30.36" fill="#c2c2c2"/><polygon points="394.64,394.64 425,394.64 425,425" fill="#a3a3a3"/><rect x="425" y="364.2857142857143" width="60.714285714285715" height="60.714285714285715" fill="#ffffff"/><rect x="425" y="364.29" width="30.36" height="30.36" fill="#9293c6"/><polygon points="425,364.29 455.36,364.29 455.36,394.65000000000003" fill="#f5f5f5"/><rect x="455.36" y="364.29" width="30.36" height="30.36" fill="#b5b5b5"/><polygon points="485.72,364.29 485.72,394.65000000000003 455.36,394.65000000000003" fill="#afafaf"/><rect x="425" y="394.64" width="30.36" height="30.36" fill="#a6a6a6"/><polygon points="425,394.64 455.36,394.64 425,425" fill="#aaaaaa"/><rect x="455.36" y="394.64" width="30.36" height="30.36" fill="#797ab9"/><polygon points="485.72,394.64 485.72,425 455.36,425" fill="#7476b6"/><rect x="485.71" y="364.29" width="60.71" height="60.71" fill="#afafaf"/><polygon points="485.71,364.29 546.42,425 485.71,425" fill="#ededed"/><rect x="546.4285714285714" y="364.2857142857143" width="60.714285714285715" height="60.714285714285715" fill="#ffffff"/><rect x="546.43" y="364.29" width="30.36" height="30.36" fill="#ececec"/><polygon points="546.43,364.29 576.79,364.29 546.43,394.65000000000003" fill="#fcfcfc"/><rect x="576.79" y="364.29" width="30.36" height="30.36" fill="#e2e2e2"/><polygon points="607.15,364.29 607.15,394.65000000000003 576.79,394.65000000000003" fill="#cecece"/><rect x="546.43" y="394.64" width="30.36" height="30.36" fill="#8e8fc3"/><polygon points="576.79,394.64 576.79,425 546.43,425" fill="#e3e3e3"/><rect x="576.79" y="394.64" width="30.36" height="30.36" fill="#f0f0f0"/><polygon points="576.79,394.64 607.15,425 576.79,425" fill="#a2a2a2"/><rect x="607.14" y="364.29" width="60.71" height="60.71" fill="#fdfdfe"/><polygon points="667.85,364.29 667.85,425 607.14,425" fill="#6668af"/></g></svg>